<svg width="500" height="500" viewBox="0 0 500 500" fill="none" xmlns="http://www.w3.org/2000/svg">
<rect width="500" height="500" rx="20" fill="#75996B" style="fill:#75996B;fill:color(display-p3 0.4579 0.5987 0.4189);fill-opacity:1;"/>
<path d="M347.159 425C352.314 425 357.258 422.952 360.903 419.306C364.548 415.66 366.596 410.716 366.596 405.56V301.556C366.596 292.671 372.738 285.148 380.727 281.318C397.267 273.427 410.489 259.945 418.058 243.253C425.628 226.56 427.058 207.73 422.097 190.085C417.136 172.441 406.103 157.116 390.945 146.816C375.786 136.515 357.477 131.901 339.248 133.788C331.741 116.335 319.284 101.465 303.418 91.0166C287.551 80.5683 268.971 75 249.974 75C230.977 75 212.397 80.5683 196.531 91.0166C180.664 101.465 168.207 116.335 160.7 133.788C142.479 131.914 124.182 136.535 109.035 146.835C93.8875 157.135 82.8624 172.453 77.9035 190.088C72.9447 207.724 74.3704 226.544 81.9293 243.231C89.4883 259.917 102.695 273.399 119.221 281.299C127.21 285.148 133.352 292.671 133.352 301.536V405.56C133.352 410.716 135.4 415.66 139.045 419.306C142.69 422.952 147.634 425 152.789 425H347.159Z" fill="#FFFFEC" stroke="#FFFFEC" style="fill:#FFFFEC;fill:color(display-p3 1.0000 1.0000 0.9255);fill-opacity:1;stroke:#FFFFEC;stroke:color(display-p3 1.0000 1.0000 0.9255);stroke-opacity:1;" stroke-width="5" stroke-linecap="round" stroke-linejoin="round"/>
</svg>
